<svg xmlns="http://www.w3.org/2000/svg" width="647" height="532" viewBox="0 0 647 532">
<g>
<path d="M 240.35 366.92 C236.33,368.04 227.72,368.39 226.80,367.47 C226.51,367.18 225.23,366.74 223.97,366.49 C222.70,366.25 220.48,364.91 219.03,363.52 C215.75,360.39 215.37,360.39 214.59,363.50 C214.17,365.17 213.22,366.04 211.73,366.13 C210.50,366.20 208.51,366.36 207.30,366.49 C206.10,366.62 204.87,366.11 204.58,365.36 C203.85,363.45 202.23,363.67 201.69,365.75 C201.44,366.71 201.18,350.06 201.12,328.75 L 201.00 290.00 L 208.50 290.00 C212.62,290.00 215.95,290.34 215.88,290.75 C215.82,291.16 215.82,297.32 215.88,304.44 L 216.00 317.37 L 218.75 314.88 C222.69,311.30 226.34,310.00 232.46,310.00 C242.46,310.00 251.11,315.66 255.25,324.90 C258.18,331.44 258.07,345.65 255.02,352.73 C252.32,359.01 245.67,365.44 240.35,366.92 ZM 564.10 366.86 C560.23,368.16 551.83,368.23 547.75,367.00 C543.22,365.64 537.58,360.47 534.45,354.82 C531.71,349.88 531.50,348.76 531.50,339.00 C531.50,329.27 531.71,328.11 534.41,323.25 C537.69,317.33 542.01,313.61 548.11,311.46 C555.46,308.87 561.06,309.67 571.25,314.79 C571.66,315.00 572.00,309.50 572.00,302.58 L 572.00 290.00 L 586.98 290.00 L 586.91 327.55 L 586.84 365.11 L 584.56 365.98 C583.30,366.46 580.41,366.60 578.12,366.29 C574.79,365.84 573.85,365.26 573.36,363.30 L 572.75 360.87 L 570.12 363.30 C568.68,364.63 565.97,366.24 564.10,366.86 ZM 84.50 365.93 C80.61,367.58 66.50,368.20 62.00,366.94 C60.08,366.39 58.05,365.82 57.50,365.66 C54.04,364.68 46.02,359.66 43.41,356.84 C36.13,348.99 33.03,340.74 33.01,329.19 C32.99,312.43 39.88,300.65 53.98,293.38 C58.63,290.98 60.92,290.49 69.24,290.16 C74.81,289.94 81.02,290.27 83.67,290.94 C89.82,292.49 98.56,298.38 101.67,303.08 C104.08,306.73 104.54,311.41 102.50,311.59 C101.95,311.63 100.82,311.94 100.00,312.26 C99.18,312.58 96.72,313.40 94.54,314.07 C90.98,315.17 90.48,315.11 89.54,313.40 C87.43,309.57 81.85,305.06 78.44,304.42 C76.51,304.06 72.24,303.96 68.96,304.20 C56.84,305.07 48.99,314.61 49.01,328.43 C49.03,346.55 62.63,357.56 79.28,352.94 C84.39,351.52 89.38,346.93 90.78,342.35 C92.29,337.43 91.56,337.04 82.19,337.75 C73.69,338.39 72.00,337.34 72.00,331.39 C72.00,331.24 72.00,331.09 72.00,330.94 C72.00,328.95 71.99,327.62 72.62,326.74 C73.86,325.00 77.56,325.00 88.60,325.01 C89.01,325.01 89.43,325.01 89.86,325.01 L 106.50 325.01 L 106.81 332.58 C107.01,337.28 106.69,340.67 105.97,341.54 C105.33,342.31 105.02,343.51 105.27,344.22 C105.81,345.75 102.70,352.21 99.19,356.82 C97.18,359.45 90.89,363.79 88.00,364.54 C87.72,364.61 86.15,365.24 84.50,365.93 ZM 358.50 366.08 C357.40,366.51 354.59,366.89 352.25,366.93 C349.11,366.98 348.00,366.61 348.00,365.50 C348.00,364.67 347.60,364.00 347.11,364.00 C345.39,364.00 345.10,361.04 346.54,358.28 C347.33,356.75 347.99,354.95 347.99,354.28 C348.00,353.60 348.87,351.13 349.94,348.78 C351.01,346.42 354.18,338.42 357.00,331.00 C364.72,310.66 365.66,308.20 369.22,299.15 L 372.50 290.80 L 381.00 290.74 C388.61,290.68 389.54,290.88 389.86,292.59 C390.05,293.64 390.56,294.95 390.98,295.50 C391.56,296.27 394.77,305.04 395.55,308.00 C395.62,308.27 396.43,310.17 397.34,312.22 C398.25,314.26 399.00,316.54 399.00,317.27 C399.00,318.00 399.39,319.03 399.87,319.55 C400.58,320.33 404.24,329.23 404.58,331.00 C404.63,331.27 405.04,332.40 405.48,333.50 C408.81,341.73 413.00,353.14 413.00,353.99 C413.00,354.56 413.42,355.81 413.94,356.76 C414.45,357.72 415.55,359.99 416.38,361.80 C417.83,364.95 417.81,365.07 415.95,364.48 C414.58,364.05 414.00,364.33 414.00,365.43 C414.00,366.69 412.75,367.00 407.65,367.00 L 401.30 367.00 L 398.40 358.48 L 395.51 349.95 L 365.81 350.50 L 364.54 354.00 C363.85,355.92 362.69,358.85 361.97,360.50 C361.25,362.15 360.63,363.90 360.58,364.40 C360.54,364.89 359.60,365.65 358.50,366.08 ZM 175.24 366.22 C173.64,367.54 161.48,368.17 157.50,367.13 C150.81,365.39 142.99,358.76 139.38,351.76 C136.89,346.95 136.43,335.23 138.47,328.73 C140.85,321.18 144.89,316.63 152.44,313.03 C160.36,309.25 168.68,308.93 176.98,312.08 C186.21,315.59 191.43,321.97 193.99,332.88 C195.42,338.91 194.27,346.52 190.97,353.04 C189.11,356.71 180.83,365.00 179.02,365.00 C177.05,365.00 176.49,365.18 175.24,366.22 ZM 291.75 366.46 C285.33,369.14 274.15,367.85 269.33,363.86 C266.74,361.72 264.05,354.89 264.02,350.40 C263.97,341.27 271.06,336.21 288.00,333.25 C297.84,331.53 298.52,331.26 298.79,328.94 C299.27,324.97 295.73,322.00 290.51,322.00 C285.99,322.00 281.00,323.66 281.00,325.16 C281.00,325.62 280.35,326.00 279.56,326.00 C278.76,326.00 277.49,326.90 276.72,327.99 C275.95,329.09 275.01,329.68 274.63,329.30 C274.25,328.92 273.22,328.50 272.35,328.37 C270.70,328.13 265.00,325.93 265.00,325.53 C265.00,324.17 268.60,318.81 271.20,316.31 C278.29,309.49 293.05,307.85 302.95,312.78 C312.95,317.76 313.94,320.89 313.98,347.50 L 314.00 366.50 L 308.25 366.43 C300.40,366.33 300.22,366.28 299.48,363.93 C298.88,362.05 298.66,362.00 297.12,363.39 C296.19,364.23 293.77,365.62 291.75,366.46 ZM 502.32 366.88 C499.12,368.52 489.00,368.25 485.50,366.43 C475.52,361.24 471.99,350.89 477.46,342.84 C480.75,338.00 486.37,335.50 499.00,333.24 L 509.50 331.37 L 509.21 328.43 C509.05,326.82 507.99,324.71 506.85,323.75 C502.96,320.46 492.74,322.09 491.43,326.21 C490.46,329.26 486.90,330.02 481.66,328.30 C476.55,326.61 475.90,325.01 478.40,320.20 C482.96,311.43 499.39,307.39 511.89,311.96 C523.54,316.22 524.60,319.11 524.19,345.65 L 523.89 365.80 L 520.44 366.44 C518.55,366.80 515.42,366.80 513.50,366.43 C510.58,365.89 510.00,365.35 510.00,363.20 L 510.00 360.63 L 507.25 363.19 C505.74,364.60 503.52,366.26 502.32,366.88 ZM 455.34 366.28 C453.82,367.23 443.08,368.03 440.50,367.38 C439.40,367.11 437.83,366.61 437.00,366.28 C436.17,365.95 435.27,365.62 435.00,365.54 C430.59,364.41 423.31,357.64 420.44,352.00 C418.22,347.64 417.37,335.00 418.92,329.29 C421.81,318.59 433.72,310.02 445.71,310.01 C456.26,309.99 466.11,315.11 469.74,322.50 C471.23,325.51 470.27,326.84 465.67,328.15 C460.15,329.73 458.26,329.36 454.07,325.90 C450.00,322.55 445.62,322.14 440.42,324.61 C435.33,327.02 433.00,331.53 433.00,338.96 C433.00,349.05 437.52,354.31 446.29,354.43 C450.87,354.49 451.50,354.19 454.96,350.29 L 458.70 346.08 L 464.10 348.08 C467.07,349.18 470.09,350.28 470.81,350.53 C473.63,351.50 462.05,364.72 457.80,365.36 C457.08,365.47 455.98,365.88 455.34,366.28 ZM 128.25 355.00 L 127.50 366.50 L 114.00 367.09 L 114.00 290.00 L 128.00 290.00 L 128.04 295.25 C128.07,298.14 128.29,310.17 128.54,322.00 C128.79,333.83 128.66,348.67 128.25,355.00 ZM 335.07 365.96 C334.00,366.53 330.85,367.00 328.07,367.00 L 323.00 367.00 L 323.00 289.74 L 326.75 290.36 C328.81,290.70 331.96,290.98 333.75,290.99 L 337.00 291.00 L 337.00 327.96 C337.00,363.49 336.92,364.97 335.07,365.96 ZM 161.48 354.20 C164.67,355.30 170.61,354.38 173.39,352.36 C177.08,349.66 179.00,344.97 179.00,338.63 C179.00,328.54 174.11,322.99 165.22,323.00 C157.05,323.01 151.99,329.21 152.01,339.22 C152.02,346.94 155.24,352.04 161.48,354.20 ZM 553.25 353.51 C557.47,355.34 561.22,355.35 565.56,353.54 C571.84,350.91 574.79,339.91 571.59,331.00 C569.24,324.44 559.94,321.19 553.18,324.56 C547.92,327.18 546.31,330.52 546.08,339.25 C545.96,343.51 546.28,347.00 546.77,347.00 C547.27,347.00 548.20,348.15 548.84,349.55 C549.48,350.95 551.46,352.73 553.25,353.51 ZM 223.42 353.58 C236.20,359.14 246.39,347.05 241.81,331.76 C239.53,324.15 229.39,320.63 222.28,324.97 C213.31,330.44 214.08,349.51 223.42,353.58 ZM 371.00 335.47 C371.00,336.74 372.63,337.00 380.50,337.00 C385.73,337.00 390.00,336.65 390.00,336.21 C390.00,335.78 388.85,332.07 387.43,327.96 C386.02,323.86 384.17,318.25 383.32,315.50 C381.45,309.46 380.29,307.99 379.44,310.58 C379.09,311.64 378.55,313.17 378.24,314.00 C377.93,314.83 377.61,315.73 377.54,316.00 C376.76,319.03 374.53,324.77 373.75,325.75 C373.20,326.44 373.01,327.00 373.33,327.00 C373.64,327.00 373.25,328.56 372.45,330.47 C371.65,332.38 371.00,334.63 371.00,335.47 ZM 281.81 355.25 C283.72,357.48 290.72,357.59 293.78,355.44 C296.70,353.40 299.00,348.85 299.00,345.12 L 299.00 342.14 L 293.25 342.44 C280.70,343.08 275.94,348.42 281.81,355.25 ZM 491.93 354.63 C498.19,361.14 509.94,353.82 509.99,343.38 C510.00,342.02 499.28,341.74 498.45,343.08 C498.14,343.59 496.99,344.00 495.89,344.00 C493.46,344.00 489.10,348.50 489.42,350.68 C489.55,351.55 490.68,353.33 491.93,354.63 Z" fill="rgb(6,42,71)"/>
<path d="M 308.41 428.92 C306.26,431.48 305.12,431.99 301.66,431.94 C297.23,431.88 292.11,428.24 293.44,426.10 C294.29,424.71 297.00,424.65 297.00,426.02 C297.00,426.58 298.11,427.55 299.46,428.16 C301.43,429.06 302.42,428.95 304.46,427.62 C306.95,425.99 307.86,422.65 306.11,421.57 C305.63,421.27 304.67,421.69 303.99,422.51 C301.56,425.44 296.62,424.11 294.46,419.93 C292.27,415.69 292.63,411.28 295.38,408.53 C297.44,406.47 298.67,406.16 304.38,406.25 L 311.00 406.35 L 311.00 416.10 C311.00,425.13 310.81,426.07 308.41,428.92 ZM 119.80 423.80 C116.56,427.04 116.00,425.25 116.00,411.50 C116.00,398.67 116.10,398.00 118.00,398.00 C119.74,398.00 120.00,398.67 120.00,403.04 C120.00,407.84 120.09,408.02 122.11,406.94 C125.03,405.38 130.63,406.63 132.47,409.26 C133.31,410.46 134.00,413.18 134.00,415.30 C134.00,421.90 126.04,427.64 122.20,423.80 C121.27,422.87 120.73,422.87 119.80,423.80 ZM 471.81 427.22 C471.52,431.13 470.20,432.87 468.69,431.35 C468.31,430.98 468.00,425.12 468.00,418.33 C468.00,408.26 468.26,406.00 469.44,406.00 C470.23,406.00 471.18,406.49 471.55,407.09 C472.04,407.87 472.53,407.87 473.31,407.09 C475.39,405.01 480.04,405.89 483.08,408.92 C487.80,413.65 486.58,420.80 480.55,423.68 C477.77,425.00 476.55,425.11 474.58,424.22 C472.19,423.13 472.10,423.23 471.81,427.22 ZM 75.48 423.83 C67.55,427.44 58.79,422.46 57.46,413.57 C56.09,404.42 62.32,397.53 71.28,398.30 C77.68,398.85 83.60,404.07 79.58,405.61 C78.79,405.91 77.22,405.22 76.08,404.08 C73.49,401.49 66.89,401.25 64.49,403.66 C58.41,409.73 61.70,421.00 69.55,421.00 C72.60,421.00 78.00,417.79 78.00,415.98 C78.00,415.50 75.87,414.97 73.26,414.80 C69.64,414.57 68.44,414.08 68.18,412.70 C67.87,411.09 68.55,410.94 74.67,411.20 C80.90,411.47 81.53,411.70 81.82,413.77 C82.25,416.75 78.71,422.35 75.48,423.83 ZM 109.08 422.08 C107.08,424.07 105.15,425.00 103.00,425.00 C98.38,425.00 94.00,420.32 94.00,415.38 C94.00,408.26 101.13,403.87 107.32,407.16 C112.94,410.16 113.79,417.36 109.08,422.08 ZM 365.60 421.60 C359.08,428.12 351.00,424.75 351.00,415.50 C351.00,406.49 359.80,402.65 366.08,408.92 C370.19,413.03 370.03,417.17 365.60,421.60 ZM 242.89 422.10 C238.68,426.03 234.70,425.96 230.90,421.89 C227.08,417.81 226.94,412.62 230.54,408.74 C234.56,404.41 242.53,405.47 244.89,410.66 C246.92,415.11 246.24,418.97 242.89,422.10 ZM 444.81 422.65 C444.57,423.86 442.91,424.23 437.21,424.35 C436.75,424.36 436.32,424.37 435.92,424.38 C433.13,424.45 431.47,424.50 430.49,423.70 C429.03,422.51 429.10,419.46 429.25,411.87 C429.26,411.12 429.28,410.33 429.30,409.50 L 429.50 398.50 L 436.99 398.50 C443.23,398.50 444.53,398.78 444.80,400.20 C445.07,401.61 444.15,401.95 439.31,402.20 L 433.50 402.50 L 433.50 409.50 L 439.31 409.80 C444.15,410.05 445.07,410.39 444.80,411.80 C444.55,413.12 443.19,413.57 438.68,413.80 L 432.88 414.10 L 433.19 417.30 C433.50,420.46 433.58,420.50 439.31,420.80 C443.93,421.04 445.06,421.42 444.81,422.65 ZM 399.82 423.78 C396.85,426.75 390.98,424.03 391.02,419.68 C391.04,416.28 392.16,415.28 396.99,414.33 C399.88,413.76 401.60,412.85 401.80,411.81 C402.26,409.42 398.27,408.45 396.10,410.41 C395.13,411.28 393.82,412.00 393.17,412.00 C391.15,412.00 391.90,408.13 394.14,406.92 C396.25,405.80 403.52,406.19 404.83,407.50 C405.80,408.47 406.78,423.35 405.94,424.33 C405.55,424.79 404.29,424.58 403.14,423.86 C401.49,422.83 400.79,422.81 399.82,423.78 ZM 147.19 423.90 C142.55,426.38 138.00,423.83 138.00,418.73 C138.00,415.61 138.67,415.12 144.23,414.17 C146.93,413.71 148.60,412.86 148.79,411.85 C149.24,409.53 145.03,408.75 142.17,410.63 C140.36,411.81 139.51,411.91 138.64,411.02 C136.93,409.27 141.47,406.00 145.61,406.00 C151.15,406.00 153.00,408.74 153.00,416.94 C153.00,423.61 151.69,426.73 150.02,424.02 C149.44,423.10 148.74,423.07 147.19,423.90 ZM 574.93 423.54 C570.50,425.83 567.48,425.36 564.59,421.92 C559.09,415.39 562.58,406.00 570.50,406.00 C574.88,406.00 579.30,409.87 578.82,413.27 C578.53,415.27 577.85,415.53 572.19,415.80 C566.91,416.05 565.93,416.37 566.20,417.77 C566.37,418.70 567.63,420.01 569.00,420.68 C571.02,421.69 571.88,421.65 573.70,420.46 C574.93,419.66 576.61,419.00 577.43,419.00 C579.75,419.00 578.17,421.86 574.93,423.54 ZM 502.37 422.93 C496.23,427.75 489.00,423.73 489.00,415.50 C489.00,411.96 489.56,410.35 491.45,408.45 C495.69,404.22 502.93,405.46 504.74,410.73 C506.31,415.28 505.44,416.00 498.42,416.00 C491.80,416.00 491.20,416.36 493.29,419.10 C495.17,421.57 498.52,422.28 499.98,420.52 C501.36,418.86 505.00,418.43 505.00,419.93 C505.00,420.44 503.81,421.79 502.37,422.93 ZM 186.66 413.48 C186.53,422.52 186.23,424.52 184.95,424.77 C184.10,424.93 183.09,424.75 182.70,424.37 C182.32,423.98 182.00,418.79 182.00,412.83 L 182.00 402.00 L 178.00 402.00 C174.64,402.00 174.00,401.67 174.00,399.97 C174.00,398.03 174.51,397.94 184.25,398.22 C193.62,398.48 194.50,398.67 194.50,400.44 C194.50,402.00 193.77,402.38 190.66,402.44 L 186.81 402.50 ZM 277.00 417.49 C276.60,423.11 276.16,424.55 274.75,424.81 C273.18,425.11 273.00,424.15 273.00,415.57 C273.00,405.94 273.77,404.17 276.69,407.09 C277.47,407.87 277.96,407.87 278.45,407.09 C279.48,405.41 284.53,405.80 286.94,407.75 C288.86,409.31 289.07,410.32 288.80,416.99 C288.55,423.11 288.19,424.54 286.80,424.80 C285.33,425.08 285.05,424.08 284.80,417.81 L 284.50 410.50 L 277.50 410.50 ZM 205.14 423.75 C202.10,425.55 199.29,425.29 197.00,423.00 C195.36,421.36 195.00,419.67 195.00,413.50 C195.00,407.50 195.30,406.00 196.50,406.00 C197.66,406.00 198.00,407.31 198.00,411.81 C198.00,418.58 199.55,421.34 203.06,420.84 C205.32,420.52 205.54,420.00 206.00,413.51 C206.40,407.89 206.84,406.45 208.25,406.19 C209.81,405.89 210.00,406.82 210.00,414.87 C210.00,422.97 208.93,427.12 207.72,423.76 C207.35,422.75 206.84,422.75 205.14,423.75 ZM 385.37 422.93 C381.48,425.98 377.37,425.61 373.90,421.89 C368.01,415.58 371.80,406.00 380.19,406.00 C384.62,406.00 389.01,409.39 387.08,411.32 C386.24,412.16 385.44,412.13 383.99,411.22 C381.49,409.66 377.75,409.65 376.20,411.20 C374.41,412.99 374.75,417.47 376.83,419.35 C378.86,421.18 382.55,421.55 383.50,420.00 C384.28,418.74 388.00,418.68 388.00,419.93 C388.00,420.44 386.81,421.79 385.37,422.93 ZM 555.83 423.40 C554.58,424.28 552.59,425.00 551.41,425.00 C549.14,425.00 544.00,421.48 544.00,419.93 C544.00,418.53 547.25,418.87 549.39,420.49 C550.78,421.54 551.79,421.65 553.20,420.89 C555.61,419.60 554.19,417.51 550.21,416.52 C546.35,415.55 545.00,414.14 545.00,411.08 C545.00,407.45 546.71,406.00 551.01,406.00 C555.55,406.00 559.06,408.30 557.28,410.11 C556.34,411.06 555.47,411.08 553.54,410.20 C550.81,408.96 547.70,409.60 548.27,411.30 C548.68,412.53 550.33,413.42 554.50,414.65 C558.52,415.84 559.30,420.97 555.83,423.40 ZM 453.74 420.90 C453.46,421.95 452.31,423.30 451.18,423.90 C447.65,425.79 447.52,423.18 450.94,418.92 L 454.09 415.00 L 450.88 411.00 C449.11,408.80 447.90,406.76 448.19,406.47 C449.26,405.41 453.85,407.94 454.48,409.94 C455.39,412.81 456.69,412.51 458.50,409.00 C459.43,407.20 460.84,406.00 462.03,406.00 C464.65,406.00 464.51,407.23 461.50,410.82 C458.40,414.50 458.40,415.03 461.49,419.57 C462.85,421.59 463.74,423.61 463.45,424.07 C462.65,425.37 460.29,424.09 458.54,421.42 C456.64,418.52 454.42,418.28 453.74,420.90 ZM 347.81 422.66 C347.57,423.86 345.96,424.24 340.67,424.35 C336.91,424.43 333.64,424.31 333.42,424.08 C333.19,423.85 333.00,417.86 333.00,410.76 C333.00,399.01 333.16,397.88 334.75,398.19 C336.25,398.47 336.57,400.07 337.00,409.51 L 337.50 420.50 L 342.81 420.80 C346.98,421.04 348.06,421.44 347.81,422.66 ZM 225.81 422.75 C225.37,425.08 221.66,425.52 219.62,423.48 C218.50,422.35 218.00,420.08 218.00,416.05 C218.00,411.07 217.71,410.16 216.00,409.71 C214.90,409.42 214.00,408.52 214.00,407.71 C214.00,406.90 214.90,406.00 216.00,405.71 C217.20,405.40 218.00,404.35 218.00,403.09 C218.00,401.67 218.64,401.00 220.00,401.00 C221.44,401.00 222.00,401.67 222.00,403.38 C222.00,404.93 222.71,405.95 224.00,406.29 C226.26,406.88 225.75,410.00 223.39,410.00 C222.37,410.00 222.00,411.47 222.00,415.50 C222.00,420.40 222.23,421.00 224.07,421.00 C225.51,421.00 226.04,421.54 225.81,422.75 ZM 531.79 422.87 C531.38,424.96 528.93,425.40 526.72,423.78 C525.42,422.83 524.92,420.89 524.78,416.25 C524.65,411.81 524.21,410.00 523.27,410.00 C520.88,410.00 520.62,406.96 522.87,405.38 C524.04,404.56 525.00,403.24 525.00,402.44 C525.00,401.65 525.67,401.00 526.50,401.00 C527.41,401.00 528.00,401.93 528.00,403.38 C528.00,404.93 528.71,405.95 530.00,406.29 C531.10,406.58 532.00,407.35 532.00,408.00 C532.00,408.65 531.10,409.42 530.00,409.71 C528.34,410.14 528.00,411.07 528.00,415.21 C528.00,419.39 528.33,420.27 530.05,420.72 C531.25,421.04 531.97,421.93 531.79,422.87 ZM 356.04 419.32 C358.18,422.04 359.97,422.01 363.25,419.19 C365.26,417.47 365.57,412.97 363.80,411.20 C361.85,409.25 356.22,409.72 355.04,411.93 C353.53,414.75 353.75,416.41 356.04,419.32 ZM 513.00 418.43 C512.54,423.91 511.36,426.02 509.69,424.35 C509.31,423.98 509.00,419.90 509.00,415.30 C509.00,408.55 509.31,406.82 510.60,406.32 C511.48,405.99 512.59,406.33 513.06,407.10 C513.74,408.20 514.17,408.23 515.16,407.24 C517.02,405.38 519.00,405.74 519.00,407.95 C519.00,409.08 517.86,410.44 516.25,411.20 C513.81,412.37 513.44,413.19 513.00,418.43 ZM 414.78 411.24 C414.53,422.92 414.29,424.51 412.75,424.81 C411.15,425.12 411.00,423.96 411.00,411.57 C411.00,398.60 411.09,398.00 413.03,398.00 C414.98,398.00 415.05,398.51 414.78,411.24 ZM 89.78 411.17 C89.52,423.42 88.80,426.47 86.69,424.35 C86.31,423.98 86.00,417.89 86.00,410.83 C86.00,398.61 86.10,398.00 88.03,398.00 C89.98,398.00 90.05,398.51 89.78,411.17 ZM 233.20 419.80 C235.10,421.70 239.79,421.26 240.96,419.07 C243.48,414.36 241.58,410.00 237.00,410.00 C233.56,410.00 232.00,411.72 232.00,415.50 C232.00,417.20 232.54,419.14 233.20,419.80 ZM 253.80 418.17 C253.52,423.85 252.41,426.07 250.69,424.35 C250.31,423.98 250.00,419.69 250.00,414.83 C250.00,406.67 250.15,406.00 252.00,406.00 C253.10,406.00 254.00,406.47 254.00,407.04 C254.00,407.75 254.60,407.75 255.93,407.04 C258.63,405.59 260.00,405.74 260.00,407.47 C260.00,408.29 258.67,409.64 257.05,410.48 C254.32,411.88 254.07,412.48 253.80,418.17 ZM 99.20 419.80 C102.22,422.82 108.00,419.70 108.00,415.05 C108.00,411.70 106.32,410.00 103.00,410.00 C101.57,410.00 99.86,410.54 99.20,411.20 C97.65,412.75 97.65,418.25 99.20,419.80 ZM 473.06 419.57 C475.89,422.98 482.00,419.83 482.00,414.97 C482.00,411.40 479.91,409.79 475.82,410.18 C472.76,410.47 472.48,410.80 472.19,414.32 C472.01,416.42 472.41,418.78 473.06,419.57 ZM 121.57 419.43 C125.01,422.86 129.90,420.25 129.97,414.95 C130.01,411.70 128.30,410.00 125.00,410.00 C123.57,410.00 121.86,410.54 121.20,411.20 C119.50,412.90 119.71,417.57 121.57,419.43 ZM 160.39 424.18 C158.91,426.57 157.98,424.22 157.85,417.75 C157.76,413.76 157.56,407.66 157.41,404.19 C157.15,398.31 157.27,397.90 159.19,398.19 C161.15,398.49 161.24,399.09 161.07,410.93 C160.97,417.77 160.66,423.73 160.39,424.18 ZM 297.65 417.30 C299.28,420.41 302.41,420.84 305.17,418.35 C307.26,416.45 307.57,412.97 305.80,411.20 C305.14,410.54 303.19,410.00 301.46,410.00 C297.31,410.00 295.57,413.33 297.65,417.30 ZM 267.50 415.43 C267.50,423.68 266.66,426.33 264.69,424.35 C264.31,423.98 264.00,419.66 264.00,414.76 C264.00,406.82 264.19,405.89 265.75,406.19 C267.26,406.48 267.50,407.75 267.50,415.43 ZM 539.50 415.43 C539.50,423.68 538.66,426.33 536.69,424.35 C536.31,423.98 536.00,419.66 536.00,414.76 C536.00,406.82 536.19,405.89 537.75,406.19 C539.26,406.48 539.50,407.75 539.50,415.43 ZM 142.09 420.61 C143.74,422.60 145.33,422.34 147.83,419.68 C150.25,417.10 149.82,416.00 146.40,416.00 C143.19,416.00 140.58,418.79 142.09,420.61 ZM 395.38 420.55 C396.26,422.85 399.80,422.24 401.61,419.47 C403.66,416.35 403.04,415.61 399.08,416.48 C395.64,417.24 394.56,418.42 395.38,420.55 ZM 492.60 413.17 C492.92,413.68 495.05,413.97 497.34,413.80 C502.59,413.42 503.23,410.67 498.18,410.18 C494.74,409.85 491.59,411.53 492.60,413.17 ZM 566.18 412.31 C565.88,413.87 566.43,414.08 570.16,413.81 C573.21,413.59 574.50,413.05 574.50,412.00 C574.50,409.63 566.64,409.92 566.18,412.31 ZM 209.18 366.31 C208.58,366.40 207.93,366.48 207.21,366.55 L 201.00 367.17 L 201.00 290.00 L 201.12 328.75 C201.18,350.06 201.44,366.71 201.69,365.75 C202.23,363.67 203.85,363.45 204.58,365.36 C204.87,366.11 206.10,366.62 207.30,366.49 C207.82,366.43 208.49,366.37 209.18,366.31 ZM 267.93 401.13 C266.73,403.38 265.65,403.49 264.04,401.54 C262.56,399.77 263.49,398.00 265.89,398.00 C268.43,398.00 269.08,398.99 267.93,401.13 ZM 318.80 423.80 C317.20,425.40 316.06,425.31 315.38,423.55 C314.60,421.53 315.76,420.00 318.06,420.00 C320.24,420.00 320.62,421.98 318.80,423.80 ZM 586.82 422.24 C586.44,424.92 583.51,425.77 582.62,423.46 C581.78,421.26 582.69,420.00 585.13,420.00 C586.64,420.00 587.06,420.56 586.82,422.24 ZM 539.82 400.17 C539.45,402.67 538.11,403.36 536.10,402.08 C534.15,400.85 535.50,398.00 538.04,398.00 C539.63,398.00 540.06,398.53 539.82,400.17 ZM 350.29 366.89 C350.15,366.88 350.01,366.88 349.87,366.88 C343.17,366.68 342.84,366.04 346.00,359.50 C346.02,359.46 346.03,359.43 346.05,359.39 C345.20,361.78 345.62,364.00 347.11,364.00 C347.60,364.00 348.00,364.67 348.00,365.50 C348.00,366.34 348.63,366.75 350.29,366.89 ZM 284.29 322.94 C282.16,323.77 280.79,325.16 280.10,327.14 C279.15,329.86 276.32,330.99 274.64,329.30 C275.02,329.67 275.95,329.08 276.72,327.99 C277.49,326.90 278.76,326.00 279.56,326.00 C280.35,326.00 281.00,325.62 281.00,325.16 C281.00,324.38 282.35,323.55 284.29,322.94 ZM 409.09 367.00 L 407.65 367.00 C412.75,367.00 414.00,366.69 414.00,365.43 C414.00,364.33 414.58,364.05 415.95,364.48 C416.77,364.74 417.23,364.87 417.37,364.65 C417.55,365.38 417.57,365.89 417.42,366.12 C417.13,366.60 413.38,367.00 409.09,367.00 ZM 360.85 364.27 C360.90,364.54 360.49,364.95 359.82,365.35 C360.26,365.02 360.56,364.67 360.58,364.40 C360.63,363.90 361.25,362.15 361.97,360.50 C362.69,358.85 363.85,355.92 364.54,354.00 C363.85,355.92 362.69,358.85 361.98,360.50 C361.26,362.15 360.75,363.85 360.85,364.27 ZM 214.99 362.13 C214.97,363.18 214.76,363.91 214.23,364.49 C214.38,364.20 214.50,363.87 214.59,363.50 C214.73,362.95 214.86,362.49 214.99,362.13 ZM 346.74 357.88 C347.45,356.25 347.95,354.78 347.97,354.28 C347.98,353.60 348.87,351.13 349.94,348.78 C348.87,351.13 348.00,353.60 347.99,354.28 C347.99,354.89 347.44,356.45 346.74,357.88 ZM 416.27 361.55 C415.45,359.78 414.43,357.68 413.94,356.76 C414.88,358.52 415.67,360.15 416.27,361.55 ZM 216.10 361.20 C216.70,361.37 217.58,362.14 219.03,363.52 C217.70,362.25 216.74,361.48 216.10,361.20 Z" fill="rgb(8,14,28)"/>
<path d="M 242.00 208.57 C229.04,210.70 227.50,210.54 224.69,206.75 C210.28,187.30 205.91,155.29 214.22,130.00 C221.66,107.37 238.86,87.17 259.59,76.70 C283.37,64.69 315.08,63.68 339.72,74.16 C362.35,83.78 378.21,98.73 388.39,120.06 L 391.94 127.47 L 380.72 138.49 C374.55,144.55 365.87,152.26 361.44,155.63 C329.50,179.89 278.23,202.62 242.00,208.57 ZM 315.79 250.92 C301.50,252.51 289.88,251.74 280.56,248.57 C278.01,247.71 275.32,247.00 274.57,247.00 C272.26,247.00 255.68,238.30 250.62,234.43 C247.98,232.42 246.20,230.42 246.66,229.98 C247.12,229.54 252.19,228.22 257.93,227.04 C267.21,225.14 280.10,221.27 292.76,216.58 C298.21,214.56 327.04,200.17 333.20,196.38 C335.78,194.80 341.09,191.56 344.99,189.18 C353.53,183.98 379.16,164.80 387.50,157.36 C390.80,154.42 394.10,152.01 394.84,152.00 C396.46,152.00 396.01,167.47 394.09,178.00 C390.44,197.99 377.05,219.38 359.92,232.56 C352.91,237.96 339.22,245.15 332.50,246.96 C329.75,247.70 327.05,248.65 326.50,249.07 C325.95,249.49 321.13,250.32 315.79,250.92 Z" fill="rgb(36,118,210)"/>
<path d="M 242.00 208.57 C278.23,202.62 329.50,179.89 361.44,155.63 C365.87,152.26 374.55,144.55 380.72,138.49 L 391.94 127.47 L 389.83 123.07 C390.79,124.83 391.58,126.00 391.89,126.00 C393.04,126.00 397.00,116.71 397.00,114.01 C397.00,110.61 394.20,106.15 391.03,104.52 C388.25,103.08 379.00,102.35 379.00,103.57 C379.00,103.88 380.39,106.16 382.09,108.63 C383.41,110.55 385.33,113.93 386.87,117.00 C377.00,97.97 362.30,84.28 341.91,75.12 C352.03,79.59 358.96,83.90 365.38,89.66 C369.45,93.31 370.50,93.83 371.77,92.78 C372.83,91.89 377.85,91.52 388.89,91.51 C402.64,91.50 404.86,91.73 407.50,93.43 C415.10,98.34 418.00,103.01 418.00,110.39 C418.00,118.76 410.61,133.43 400.91,144.31 L 395.79 150.06 L 395.70 154.78 C395.54,153.05 395.26,152.00 394.84,152.00 C394.10,152.01 390.80,154.42 387.50,157.36 C379.16,164.80 353.53,183.98 344.99,189.18 C341.09,191.56 335.78,194.80 333.20,196.38 C327.04,200.17 298.21,214.56 292.76,216.58 C280.10,221.27 267.21,225.14 257.93,227.04 C252.19,228.22 247.12,229.54 246.66,229.98 C246.30,230.32 247.33,231.64 249.07,233.17 L 245.06 230.00 L 233.28 231.17 C223.15,232.19 220.25,232.12 212.59,230.72 C194.96,227.47 187.49,221.15 187.52,209.48 C187.53,204.40 188.18,202.04 191.25,195.91 C195.43,187.56 205.97,171.84 207.80,171.23 C209.43,170.69 209.32,175.47 207.60,180.50 C206.85,182.70 205.66,188.41 204.96,193.19 C203.83,200.97 203.87,202.15 205.36,204.42 C207.74,208.06 212.12,209.99 219.53,210.68 C226.70,211.35 227.34,210.73 224.16,206.15 C222.91,204.35 221.73,202.46 220.64,200.51 C216.11,192.52 212.96,183.10 211.33,173.21 C208.93,158.82 209.78,143.53 214.22,130.00 C209.80,143.47 208.97,158.84 211.33,173.21 C212.97,182.99 216.11,192.37 220.64,200.51 C221.89,202.70 223.24,204.79 224.69,206.75 C227.50,210.54 229.04,210.70 242.00,208.57 ZM 368.59 224.88 C375.66,217.75 381.74,209.29 386.29,200.38 C386.01,200.96 385.71,201.55 385.41,202.15 C381.53,209.86 375.45,218.00 368.59,224.88 ZM 263.61 242.16 C268.68,244.82 273.41,247.00 274.57,247.00 C273.35,247.00 268.67,244.84 263.61,242.16 Z" fill="rgb(101,181,84)"/>
<path d="M 0.00 266.00 L 0.00 0.00 L 323.50 0.00 L 647.00 0.00 L 647.00 266.00 L 647.00 532.00 L 323.50 532.00 L 0.00 532.00 L 0.00 266.00 ZM 308.41 428.92 C310.81,426.07 311.00,425.13 311.00,416.10 L 311.00 406.35 L 304.38 406.25 C298.67,406.16 297.44,406.47 295.38,408.53 C292.63,411.28 292.27,415.69 294.46,419.93 C296.62,424.11 301.56,425.44 303.99,422.51 C304.67,421.69 305.63,421.27 306.11,421.57 C307.86,422.65 306.95,425.99 304.46,427.62 C302.42,428.95 301.43,429.06 299.46,428.16 C298.11,427.55 297.00,426.58 297.00,426.02 C297.00,424.65 294.29,424.71 293.44,426.10 C292.11,428.24 297.23,431.88 301.66,431.94 C305.12,431.99 306.26,431.48 308.41,428.92 ZM 471.81 427.22 C472.10,423.23 472.19,423.13 474.58,424.22 C476.55,425.11 477.77,425.00 480.55,423.68 C486.58,420.80 487.80,413.65 483.08,408.92 C480.04,405.89 475.39,405.01 473.31,407.09 C472.53,407.87 472.04,407.87 471.55,407.09 C471.18,406.49 470.23,406.00 469.44,406.00 C468.26,406.00 468.00,408.26 468.00,418.33 C468.00,425.12 468.31,430.98 468.69,431.35 C470.20,432.87 471.52,431.13 471.81,427.22 ZM 75.48 423.83 C78.71,422.35 82.25,416.75 81.82,413.77 C81.53,411.70 80.90,411.47 74.67,411.20 C68.55,410.94 67.87,411.09 68.18,412.70 C68.44,414.08 69.64,414.57 73.26,414.80 C75.87,414.97 78.00,415.50 78.00,415.98 C78.00,417.79 72.60,421.00 69.55,421.00 C61.70,421.00 58.41,409.73 64.49,403.66 C66.89,401.25 73.49,401.49 76.08,404.08 C77.22,405.22 78.79,405.91 79.58,405.61 C83.60,404.07 77.68,398.85 71.28,398.30 C62.32,397.53 56.09,404.42 57.46,413.57 C58.79,422.46 67.55,427.44 75.48,423.83 ZM 89.78 411.17 C90.05,398.51 89.98,398.00 88.03,398.00 C86.10,398.00 86.00,398.61 86.00,410.83 C86.00,417.89 86.31,423.98 86.69,424.35 C88.80,426.47 89.52,423.42 89.78,411.17 ZM 109.08 422.08 C113.79,417.36 112.94,410.16 107.32,407.16 C101.13,403.87 94.00,408.26 94.00,415.38 C94.00,420.32 98.38,425.00 103.00,425.00 C105.15,425.00 107.08,424.07 109.08,422.08 ZM 119.80 423.80 C120.73,422.87 121.27,422.87 122.20,423.80 C126.04,427.64 134.00,421.90 134.00,415.30 C134.00,413.18 133.31,410.46 132.47,409.26 C130.63,406.63 125.03,405.38 122.11,406.94 C120.09,408.02 120.00,407.84 120.00,403.04 C120.00,398.67 119.74,398.00 118.00,398.00 C116.10,398.00 116.00,398.67 116.00,411.50 C116.00,425.25 116.56,427.04 119.80,423.80 ZM 147.19 423.90 C148.74,423.07 149.44,423.10 150.02,424.02 C151.69,426.73 153.00,423.61 153.00,416.94 C153.00,408.74 151.15,406.00 145.61,406.00 C141.47,406.00 136.93,409.27 138.64,411.02 C139.51,411.91 140.36,411.81 142.17,410.63 C145.03,408.75 149.24,409.53 148.79,411.85 C148.60,412.86 146.93,413.71 144.23,414.17 C138.67,415.12 138.00,415.61 138.00,418.73 C138.00,423.83 142.55,426.38 147.19,423.90 ZM 160.39 424.18 C160.66,423.73 160.97,417.77 161.07,410.93 C161.24,399.09 161.15,398.49 159.19,398.19 C157.27,397.90 157.15,398.31 157.41,404.19 C157.56,407.66 157.76,413.76 157.85,417.75 C157.98,424.22 158.91,426.57 160.39,424.18 ZM 186.66 413.48 L 186.81 402.50 L 190.66 402.44 C193.77,402.38 194.50,402.00 194.50,400.44 C194.50,398.67 193.62,398.48 184.25,398.22 C174.51,397.94 174.00,398.03 174.00,399.97 C174.00,401.67 174.64,402.00 178.00,402.00 L 182.00 402.00 L 182.00 412.83 C182.00,418.79 182.32,423.98 182.70,424.37 C183.09,424.75 184.10,424.93 184.95,424.77 C186.23,424.52 186.53,422.52 186.66,413.48 ZM 205.14 423.75 C206.84,422.75 207.35,422.75 207.72,423.76 C208.93,427.12 210.00,422.97 210.00,414.87 C210.00,406.82 209.81,405.89 208.25,406.19 C206.84,406.45 206.40,407.89 206.00,413.51 C205.54,420.00 205.32,420.52 203.06,420.84 C199.55,421.34 198.00,418.58 198.00,411.81 C198.00,407.31 197.66,406.00 196.50,406.00 C195.30,406.00 195.00,407.50 195.00,413.50 C195.00,419.67 195.36,421.36 197.00,423.00 C199.29,425.29 202.10,425.55 205.14,423.75 ZM 225.81 422.75 C226.04,421.54 225.51,421.00 224.07,421.00 C222.23,421.00 222.00,420.40 222.00,415.50 C222.00,411.47 222.37,410.00 223.39,410.00 C225.75,410.00 226.26,406.88 224.00,406.29 C222.71,405.95 222.00,404.93 222.00,403.38 C222.00,401.67 221.44,401.00 220.00,401.00 C218.64,401.00 218.00,401.67 218.00,403.09 C218.00,404.35 217.20,405.40 216.00,405.71 C214.90,406.00 214.00,406.90 214.00,407.71 C214.00,408.52 214.90,409.42 216.00,409.71 C217.71,410.16 218.00,411.07 218.00,416.05 C218.00,420.08 218.50,422.35 219.62,423.48 C221.66,425.52 225.37,425.08 225.81,422.75 ZM 242.89 422.10 C246.24,418.97 246.92,415.11 244.89,410.66 C242.53,405.47 234.56,404.41 230.54,408.74 C226.94,412.62 227.08,417.81 230.90,421.89 C234.70,425.96 238.68,426.03 242.89,422.10 ZM 253.80 418.17 C254.07,412.48 254.32,411.88 257.05,410.48 C258.67,409.64 260.00,408.29 260.00,407.47 C260.00,405.74 258.63,405.59 255.93,407.04 C254.60,407.75 254.00,407.75 254.00,407.04 C254.00,406.47 253.10,406.00 252.00,406.00 C250.15,406.00 250.00,406.67 250.00,414.83 C250.00,419.69 250.31,423.98 250.69,424.35 C252.41,426.07 253.52,423.85 253.80,418.17 ZM 267.50 415.43 C267.50,407.75 267.26,406.48 265.75,406.19 C264.19,405.89 264.00,406.82 264.00,414.76 C264.00,419.66 264.31,423.98 264.69,424.35 C266.66,426.33 267.50,423.68 267.50,415.43 ZM 277.00 417.49 L 277.50 410.50 L 281.00 410.50 L 284.50 410.50 L 284.80 417.81 C285.05,424.08 285.33,425.08 286.80,424.80 C288.19,424.54 288.55,423.11 288.80,416.99 C289.07,410.32 288.86,409.31 286.94,407.75 C284.53,405.80 279.48,405.41 278.45,407.09 C277.96,407.87 277.47,407.87 276.69,407.09 C273.77,404.17 273.00,405.94 273.00,415.57 C273.00,424.15 273.18,425.11 274.75,424.81 C276.16,424.55 276.60,423.11 277.00,417.49 ZM 318.80 423.80 C320.62,421.98 320.24,420.00 318.06,420.00 C315.76,420.00 314.60,421.53 315.38,423.55 C316.06,425.31 317.20,425.40 318.80,423.80 ZM 347.81 422.66 C348.06,421.44 346.98,421.04 342.81,420.80 L 337.50 420.50 L 337.00 409.51 C336.57,400.07 336.25,398.47 334.75,398.19 C333.16,397.88 333.00,399.01 333.00,410.76 C333.00,417.86 333.19,423.85 333.42,424.08 C333.64,424.31 336.91,424.43 340.67,424.35 C345.96,424.24 347.57,423.86 347.81,422.66 ZM 365.60 421.60 C370.03,417.17 370.19,413.03 366.08,408.92 C359.80,402.65 351.00,406.49 351.00,415.50 C351.00,424.75 359.08,428.12 365.60,421.60 ZM 385.37 422.93 C386.81,421.79 388.00,420.44 388.00,419.93 C388.00,418.68 384.28,418.74 383.50,420.00 C382.55,421.55 378.86,421.18 376.83,419.35 C374.75,417.47 374.41,412.99 376.20,411.20 C377.75,409.65 381.49,409.66 383.99,411.22 C385.44,412.13 386.24,412.16 387.08,411.32 C389.01,409.39 384.62,406.00 380.19,406.00 C371.80,406.00 368.01,415.58 373.90,421.89 C377.37,425.61 381.48,425.98 385.37,422.93 ZM 399.82 423.78 C400.79,422.81 401.49,422.83 403.14,423.86 C404.29,424.58 405.55,424.79 405.94,424.33 C406.78,423.35 405.80,408.47 404.83,407.50 C403.52,406.19 396.25,405.80 394.14,406.92 C391.90,408.13 391.15,412.00 393.17,412.00 C393.82,412.00 395.13,411.28 396.10,410.41 C398.27,408.45 402.26,409.42 401.80,411.81 C401.60,412.85 399.88,413.76 396.99,414.33 C392.16,415.28 391.04,416.28 391.02,419.68 C390.98,424.03 396.85,426.75 399.82,423.78 ZM 414.78 411.24 C415.05,398.51 414.98,398.00 413.03,398.00 C411.09,398.00 411.00,398.60 411.00,411.57 C411.00,423.96 411.15,425.12 412.75,424.81 C414.29,424.51 414.53,422.92 414.78,411.24 ZM 444.81 422.65 C445.06,421.42 443.93,421.04 439.31,420.80 C433.58,420.50 433.50,420.46 433.19,417.30 L 432.88 414.10 L 438.68 413.80 C443.19,413.57 444.55,413.12 444.80,411.80 C445.07,410.39 444.15,410.05 439.31,409.80 L 433.50 409.50 L 433.50 406.00 L 433.50 402.50 L 439.31 402.20 C444.15,401.95 445.07,401.61 444.80,400.20 C444.53,398.78 443.23,398.50 436.99,398.50 L 429.50 398.50 L 429.30 409.50 C429.00,425.40 428.54,424.53 437.21,424.35 C442.91,424.23 444.57,423.86 444.81,422.65 ZM 453.74 420.90 C454.42,418.28 456.64,418.52 458.54,421.42 C460.29,424.09 462.65,425.37 463.45,424.07 C463.74,423.61 462.85,421.59 461.49,419.57 C458.40,415.03 458.40,414.50 461.50,410.82 C464.51,407.23 464.65,406.00 462.03,406.00 C460.84,406.00 459.43,407.20 458.50,409.00 C456.69,412.51 455.39,412.81 454.48,409.94 C453.85,407.94 449.26,405.41 448.19,406.47 C447.90,406.76 449.11,408.80 450.88,411.00 L 454.09 415.00 L 450.94 418.92 C447.52,423.18 447.65,425.79 451.18,423.90 C452.31,423.30 453.46,421.95 453.74,420.90 ZM 502.37 422.93 C503.81,421.79 505.00,420.44 505.00,419.93 C505.00,418.43 501.36,418.86 499.98,420.52 C498.52,422.28 495.17,421.57 493.29,419.10 C491.20,416.36 491.80,416.00 498.42,416.00 C505.44,416.00 506.31,415.28 504.74,410.73 C502.93,405.46 495.69,404.22 491.45,408.45 C489.56,410.35 489.00,411.96 489.00,415.50 C489.00,423.73 496.23,427.75 502.37,422.93 ZM 513.00 418.43 C513.44,413.19 513.81,412.37 516.25,411.20 C517.86,410.44 519.00,409.08 519.00,407.95 C519.00,405.74 517.02,405.38 515.16,407.24 C514.17,408.23 513.74,408.20 513.06,407.10 C512.59,406.33 511.48,405.99 510.60,406.32 C509.31,406.82 509.00,408.55 509.00,415.30 C509.00,419.90 509.31,423.98 509.69,424.35 C511.36,426.02 512.54,423.91 513.00,418.43 ZM 531.79 422.87 C531.97,421.93 531.25,421.04 530.05,420.72 C528.33,420.27 528.00,419.39 528.00,415.21 C528.00,411.07 528.34,410.14 530.00,409.71 C531.10,409.42 532.00,408.65 532.00,408.00 C532.00,407.35 531.10,406.58 530.00,406.29 C528.71,405.95 528.00,404.93 528.00,403.38 C528.00,401.93 527.41,401.00 526.50,401.00 C525.67,401.00 525.00,401.65 525.00,402.44 C525.00,403.24 524.04,404.56 522.87,405.38 C520.62,406.96 520.88,410.00 523.27,410.00 C524.21,410.00 524.65,411.81 524.78,416.25 C524.92,420.89 525.42,422.83 526.72,423.78 C528.93,425.40 531.38,424.96 531.79,422.87 ZM 539.50 415.43 C539.50,407.75 539.26,406.48 537.75,406.19 C536.19,405.89 536.00,406.82 536.00,414.76 C536.00,419.66 536.31,423.98 536.69,424.35 C538.66,426.33 539.50,423.68 539.50,415.43 ZM 555.83 423.40 C559.30,420.97 558.52,415.84 554.50,414.65 C550.33,413.42 548.68,412.53 548.27,411.30 C547.70,409.60 550.81,408.96 553.54,410.20 C555.47,411.08 556.34,411.06 557.28,410.11 C559.06,408.30 555.55,406.00 551.01,406.00 C546.71,406.00 545.00,407.45 545.00,411.08 C545.00,414.14 546.35,415.55 550.21,416.52 C554.19,417.51 555.61,419.60 553.20,420.89 C551.79,421.65 550.78,421.54 549.39,420.49 C547.25,418.87 544.00,418.53 544.00,419.93 C544.00,421.48 549.14,425.00 551.41,425.00 C552.59,425.00 554.58,424.28 555.83,423.40 ZM 574.93 423.54 C578.17,421.86 579.75,419.00 577.43,419.00 C576.61,419.00 574.93,419.66 573.70,420.46 C571.88,421.65 571.02,421.69 569.00,420.68 C567.63,420.01 566.37,418.70 566.20,417.77 C565.93,416.37 566.91,416.05 572.19,415.80 C577.85,415.53 578.53,415.27 578.82,413.27 C579.30,409.87 574.88,406.00 570.50,406.00 C562.58,406.00 559.09,415.39 564.59,421.92 C567.48,425.36 570.50,425.83 574.93,423.54 ZM 586.82 422.24 C587.06,420.56 586.64,420.00 585.13,420.00 C582.69,420.00 581.78,421.26 582.62,423.46 C583.51,425.77 586.44,424.92 586.82,422.24 ZM 267.93 401.13 C269.08,398.99 268.43,398.00 265.89,398.00 C263.49,398.00 262.56,399.77 264.04,401.54 C265.65,403.49 266.73,403.38 267.93,401.13 ZM 539.82 400.17 C540.06,398.53 539.63,398.00 538.04,398.00 C535.50,398.00 534.15,400.85 536.10,402.08 C538.11,403.36 539.45,402.67 539.82,400.17 ZM 84.50 365.93 C86.15,365.24 87.72,364.61 88.00,364.54 C90.89,363.79 97.18,359.45 99.19,356.82 C102.70,352.21 105.81,345.75 105.27,344.22 C105.02,343.51 105.33,342.31 105.97,341.54 C106.69,340.67 107.01,337.28 106.81,332.58 L 106.50 325.01 L 89.86 325.01 C71.56,325.00 72.00,324.84 72.00,331.39 C72.00,337.34 73.69,338.39 82.19,337.75 C91.56,337.04 92.29,337.43 90.78,342.35 C89.38,346.93 84.39,351.52 79.28,352.94 C62.63,357.56 49.03,346.55 49.01,328.43 C48.99,314.61 56.84,305.07 68.96,304.20 C72.24,303.96 76.51,304.06 78.44,304.42 C81.85,305.06 87.43,309.57 89.54,313.40 C90.48,315.11 90.98,315.17 94.54,314.07 C96.72,313.40 99.18,312.58 100.00,312.26 C100.82,311.94 101.95,311.63 102.50,311.59 C104.54,311.41 104.08,306.73 101.67,303.08 C98.56,298.38 89.82,292.49 83.67,290.94 C81.02,290.27 74.81,289.94 69.24,290.16 C60.92,290.49 58.63,290.98 53.98,293.38 C39.88,300.65 32.99,312.43 33.01,329.19 C33.03,340.74 36.13,348.99 43.41,356.84 C46.02,359.66 54.04,364.68 57.50,365.66 C58.05,365.82 60.08,366.39 62.00,366.94 C66.50,368.20 80.61,367.58 84.50,365.93 ZM 175.24 366.22 C176.49,365.18 177.05,365.00 179.02,365.00 C180.83,365.00 189.11,356.71 190.97,353.04 C194.27,346.52 195.42,338.91 193.99,332.88 C191.43,321.97 186.21,315.59 176.98,312.08 C168.68,308.93 160.36,309.25 152.44,313.03 C144.89,316.63 140.85,321.18 138.47,328.73 C136.43,335.23 136.89,346.95 139.38,351.76 C142.99,358.76 150.81,365.39 157.50,367.13 C161.48,368.17 173.64,367.54 175.24,366.22 ZM 240.35 366.92 C245.67,365.44 252.32,359.01 255.02,352.73 C258.07,345.65 258.18,331.44 255.25,324.90 C251.11,315.66 242.46,310.00 232.46,310.00 C226.34,310.00 222.69,311.30 218.75,314.88 L 216.00 317.37 L 215.88 304.44 C215.82,297.32 215.82,291.16 215.88,290.75 C215.95,290.34 212.62,290.00 208.50,290.00 L 201.00 290.00 L 201.00 328.59 L 201.00 367.17 L 207.21 366.55 C213.17,365.95 214.95,364.97 214.98,362.25 C215.01,360.38 216.10,360.72 219.03,363.52 C220.48,364.91 222.70,366.25 223.97,366.49 C225.23,366.74 226.51,367.18 226.80,367.47 C227.72,368.39 236.33,368.04 240.35,366.92 ZM 291.75 366.46 C293.77,365.62 296.19,364.23 297.12,363.39 C298.66,362.00 298.88,362.05 299.48,363.93 C300.22,366.28 300.40,366.33 308.25,366.43 L 314.00 366.50 L 313.98 347.50 C313.94,320.89 312.95,317.76 302.95,312.78 C293.05,307.85 278.29,309.49 271.20,316.31 C268.60,318.81 265.00,324.17 265.00,325.53 C265.00,325.93 270.70,328.13 272.35,328.37 C273.22,328.50 274.26,328.92 274.64,329.30 C276.32,330.99 279.15,329.86 280.10,327.14 C281.32,323.65 284.66,322.00 290.51,322.00 C295.73,322.00 299.27,324.97 298.79,328.94 C298.52,331.26 297.84,331.53 288.00,333.25 C271.06,336.21 263.97,341.27 264.02,350.40 C264.05,354.89 266.74,361.72 269.33,363.86 C274.15,367.85 285.33,369.14 291.75,366.46 ZM 455.34 366.28 C455.98,365.88 457.08,365.47 457.80,365.36 C462.05,364.72 473.63,351.50 470.81,350.53 C470.09,350.28 467.07,349.18 464.10,348.08 L 458.70 346.08 L 454.96 350.29 C451.50,354.19 450.87,354.49 446.29,354.43 C437.52,354.31 433.00,349.05 433.00,338.96 C433.00,331.53 435.33,327.02 440.42,324.61 C445.62,322.14 450.00,322.55 454.07,325.90 C458.26,329.36 460.15,329.73 465.67,328.15 C470.27,326.84 471.23,325.51 469.74,322.50 C466.11,315.11 456.26,309.99 445.71,310.01 C433.72,310.02 421.81,318.59 418.92,329.29 C417.37,335.00 418.22,347.64 420.44,352.00 C423.31,357.64 430.59,364.41 435.00,365.54 C435.27,365.62 436.17,365.95 437.00,366.28 C437.83,366.61 439.40,367.11 440.50,367.38 C443.08,368.03 453.82,367.23 455.34,366.28 ZM 502.32 366.88 C503.52,366.26 505.74,364.60 507.25,363.19 L 510.00 360.63 L 510.00 363.20 C510.00,365.35 510.58,365.89 513.50,366.43 C515.42,366.80 518.55,366.80 520.44,366.44 L 523.89 365.80 L 524.19 345.65 C524.60,319.11 523.54,316.22 511.89,311.96 C499.39,307.39 482.96,311.43 478.40,320.20 C475.90,325.01 476.55,326.61 481.66,328.30 C486.90,330.02 490.46,329.26 491.43,326.21 C492.74,322.09 502.96,320.46 506.85,323.75 C507.99,324.71 509.05,326.82 509.21,328.43 L 509.50 331.37 L 499.00 333.24 C486.37,335.50 480.75,338.00 477.46,342.84 C471.99,350.89 475.52,361.24 485.50,366.43 C489.00,368.25 499.12,368.52 502.32,366.88 ZM 564.10 366.86 C565.97,366.24 568.68,364.63 570.12,363.30 L 572.75 360.87 L 573.36 363.30 C573.85,365.26 574.79,365.84 578.12,366.29 C580.41,366.60 583.30,366.46 584.56,365.98 L 586.84 365.11 L 586.91 327.55 L 586.98 290.00 L 579.49 290.00 L 572.00 290.00 L 572.00 302.58 C572.00,309.50 571.66,315.00 571.25,314.79 C561.06,309.67 555.46,308.87 548.11,311.46 C542.01,313.61 537.69,317.33 534.41,323.25 C531.71,328.11 531.50,329.27 531.50,339.00 C531.50,348.76 531.71,349.88 534.45,354.82 C537.58,360.47 543.22,365.64 547.75,367.00 C551.83,368.23 560.23,368.16 564.10,366.86 ZM 128.25 355.00 C128.66,348.67 128.79,333.83 128.54,322.00 C128.29,310.17 128.07,298.14 128.04,295.25 L 128.00 290.00 L 121.00 290.00 L 114.00 290.00 L 114.00 328.55 L 114.00 367.09 L 120.75 366.80 L 127.50 366.50 L 128.25 355.00 ZM 335.07 365.96 C336.92,364.97 337.00,363.49 337.00,327.96 L 337.00 291.00 L 333.75 290.99 C331.96,290.98 328.81,290.70 326.75,290.36 L 323.00 289.74 L 323.00 328.37 L 323.00 367.00 L 328.07 367.00 C330.85,367.00 334.00,366.53 335.07,365.96 ZM 358.37 366.05 C359.83,365.50 360.94,364.70 360.85,364.27 C360.75,363.85 361.26,362.15 361.98,360.50 C362.69,358.85 363.85,355.92 364.54,354.00 L 365.81 350.50 L 380.66 350.23 L 395.51 349.95 L 398.40 358.48 L 401.30 367.00 L 409.09 367.00 C413.38,367.00 417.13,366.60 417.42,366.12 C417.91,365.33 416.48,361.48 413.94,356.76 C413.42,355.81 413.00,354.56 413.00,353.99 C413.00,353.14 408.81,341.73 405.48,333.50 C405.04,332.40 404.63,331.27 404.58,331.00 C404.24,329.23 400.58,320.33 399.87,319.55 C399.39,319.03 399.00,318.00 399.00,317.27 C399.00,316.54 398.25,314.26 397.34,312.22 C396.43,310.17 395.62,308.27 395.55,308.00 C394.77,305.04 391.56,296.27 390.98,295.50 C390.56,294.95 390.05,293.64 389.86,292.59 C389.54,290.88 388.61,290.68 381.00,290.74 L 372.50 290.80 L 369.22 299.15 C365.66,308.20 364.72,310.66 357.00,331.00 C354.18,338.42 351.01,346.42 349.94,348.78 C348.87,351.13 347.98,353.60 347.97,354.28 C347.95,354.95 347.06,357.30 346.00,359.50 C342.84,366.04 343.17,366.68 349.87,366.88 C353.09,366.97 356.92,366.60 358.37,366.05 ZM 315.79 250.92 C321.13,250.32 325.95,249.49 326.50,249.07 C327.05,248.65 329.75,247.70 332.50,246.96 C339.22,245.15 352.91,237.96 359.92,232.56 C370.13,224.71 379.94,213.00 385.41,202.15 C392.68,187.74 395.25,177.28 395.58,160.78 L 395.79 150.06 L 400.91 144.31 C410.61,133.43 418.00,118.76 418.00,110.39 C418.00,103.01 415.10,98.34 407.50,93.43 C404.86,91.73 402.64,91.50 388.89,91.51 C377.85,91.52 372.83,91.89 371.77,92.78 C370.50,93.83 369.45,93.31 365.38,89.66 C358.51,83.50 351.04,78.99 339.72,74.16 C315.10,63.68 283.38,64.69 259.59,76.70 C238.86,87.17 221.66,107.37 214.22,130.00 C206.02,154.95 210.05,185.83 224.16,206.15 C227.34,210.73 226.70,211.35 219.53,210.68 C212.12,209.99 207.74,208.06 205.36,204.42 C203.87,202.15 203.83,200.97 204.96,193.19 C205.66,188.41 206.85,182.70 207.60,180.50 C209.32,175.47 209.43,170.69 207.80,171.23 C205.97,171.84 195.43,187.56 191.25,195.91 C188.18,202.04 187.53,204.40 187.52,209.48 C187.49,221.15 194.96,227.47 212.59,230.72 C220.25,232.12 223.15,232.19 233.28,231.17 L 245.06 230.00 L 250.08 233.97 C255.19,238.01 272.09,247.00 274.57,247.00 C275.32,247.00 278.01,247.71 280.56,248.57 C289.88,251.74 301.50,252.51 315.79,250.92 ZM 297.65 417.30 C295.57,413.33 297.31,410.00 301.46,410.00 C303.19,410.00 305.14,410.54 305.80,411.20 C307.57,412.97 307.26,416.45 305.17,418.35 C302.41,420.84 299.28,420.41 297.65,417.30 ZM 473.06 419.57 C472.41,418.78 472.01,416.42 472.19,414.32 C472.48,410.80 472.76,410.47 475.82,410.18 C479.91,409.79 482.00,411.40 482.00,414.97 C482.00,419.83 475.89,422.98 473.06,419.57 ZM 99.20 419.80 C97.65,418.25 97.65,412.75 99.20,411.20 C99.86,410.54 101.57,410.00 103.00,410.00 C106.32,410.00 108.00,411.70 108.00,415.05 C108.00,419.70 102.22,422.82 99.20,419.80 ZM 121.57 419.43 C119.71,417.57 119.50,412.90 121.20,411.20 C121.86,410.54 123.57,410.00 125.00,410.00 C128.30,410.00 130.01,411.70 129.97,414.95 C129.90,420.25 125.01,422.86 121.57,419.43 ZM 142.09 420.61 C140.58,418.79 143.19,416.00 146.40,416.00 C149.82,416.00 150.25,417.10 147.83,419.68 C145.33,422.34 143.74,422.60 142.09,420.61 ZM 233.20 419.80 C232.54,419.14 232.00,417.20 232.00,415.50 C232.00,411.72 233.56,410.00 237.00,410.00 C241.58,410.00 243.48,414.36 240.96,419.07 C239.79,421.26 235.10,421.70 233.20,419.80 ZM 356.04 419.32 C353.75,416.41 353.53,414.75 355.04,411.93 C356.22,409.72 361.85,409.25 363.80,411.20 C365.57,412.97 365.26,417.47 363.25,419.19 C359.97,422.01 358.18,422.04 356.04,419.32 ZM 395.38 420.55 C394.56,418.42 395.64,417.24 399.08,416.48 C403.04,415.61 403.66,416.35 401.61,419.47 C399.80,422.24 396.26,422.85 395.38,420.55 ZM 492.60 413.17 C491.59,411.53 494.74,409.85 498.18,410.18 C503.23,410.67 502.59,413.42 497.34,413.80 C495.05,413.97 492.92,413.68 492.60,413.17 ZM 566.18 412.31 C566.64,409.92 574.50,409.63 574.50,412.00 C574.50,413.05 573.21,413.59 570.16,413.81 C566.43,414.08 565.88,413.87 566.18,412.31 ZM 161.48 354.20 C155.24,352.04 152.02,346.94 152.01,339.22 C151.99,329.21 157.05,323.01 165.22,323.00 C174.11,322.99 179.00,328.54 179.00,338.63 C179.00,344.97 177.08,349.66 173.39,352.36 C170.61,354.38 164.67,355.30 161.48,354.20 ZM 223.42 353.58 C214.08,349.51 213.31,330.44 222.28,324.97 C229.39,320.63 239.53,324.15 241.81,331.76 C246.39,347.05 236.20,359.14 223.42,353.58 ZM 281.81 355.25 C275.94,348.42 280.70,343.08 293.25,342.44 L 299.00 342.14 L 299.00 345.12 C299.00,348.85 296.70,353.40 293.78,355.44 C290.72,357.59 283.72,357.48 281.81,355.25 ZM 491.93 354.63 C490.68,353.33 489.55,351.55 489.42,350.68 C489.10,348.50 493.46,344.00 495.89,344.00 C496.99,344.00 498.14,343.59 498.45,343.08 C499.28,341.74 510.00,342.02 509.99,343.38 C509.94,353.82 498.19,361.14 491.93,354.63 ZM 553.25 353.51 C551.46,352.73 549.48,350.95 548.84,349.55 C548.20,348.15 547.27,347.00 546.77,347.00 C546.28,347.00 545.96,343.51 546.08,339.25 C546.31,330.52 547.92,327.18 553.18,324.56 C559.94,321.19 569.24,324.44 571.59,331.00 C574.79,339.91 571.84,350.91 565.56,353.54 C561.22,355.35 557.47,355.34 553.25,353.51 ZM 371.00 335.47 C371.00,334.63 371.65,332.38 372.45,330.47 C373.25,328.56 373.64,327.00 373.33,327.00 C373.01,327.00 373.20,326.44 373.75,325.75 C374.53,324.77 376.76,319.03 377.54,316.00 C377.61,315.73 377.93,314.83 378.24,314.00 C378.55,313.17 379.09,311.64 379.44,310.58 C380.29,307.99 381.45,309.46 383.32,315.50 C384.17,318.25 386.02,323.86 387.43,327.96 C388.85,332.07 390.00,335.78 390.00,336.21 C390.00,336.65 385.73,337.00 380.50,337.00 C372.63,337.00 371.00,336.74 371.00,335.47 ZM 388.10 119.56 C386.50,116.02 383.79,111.10 382.09,108.63 C380.39,106.16 379.00,103.88 379.00,103.57 C379.00,102.35 388.25,103.08 391.03,104.52 C394.20,106.15 397.00,110.61 397.00,114.01 C397.00,116.71 393.04,126.00 391.89,126.00 C391.41,126.00 389.71,123.10 388.10,119.56 Z" fill="rgb(254,254,254)"/>
</g>
</svg>